<svg xmlns="http://www.w3.org/2000/svg" fill="none" viewBox="0 0 294 15" height="15" width="294">
<g clip-path="url(#clip0_149_4387)">
<path fill="#FFB3C7" d="M21.1172 0.0551758H-0.0541832C-1.4438 0.0551758 -2.57031 1.22492 -2.57031 2.66787V12.5587C-2.57031 14.0017 -1.4438 15.1714 -0.0541832 15.1714H21.1172C22.5068 15.1714 23.6333 14.0017 23.6333 12.5587V2.66787C23.6333 1.22492 22.5068 0.0551758 21.1172 0.0551758Z"></path>
<path fill="#0A0B09" d="M21.1847 8.91092C21.1028 8.91124 21.0218 8.92833 20.9462 8.96121C20.8707 8.99409 20.8021 9.04212 20.7444 9.10255C20.6868 9.16298 20.6412 9.23463 20.6102 9.31338C20.5793 9.39214 20.5636 9.47646 20.564 9.56153C20.5636 9.64659 20.5793 9.73091 20.6102 9.80967C20.6412 9.88843 20.6868 9.96007 20.7444 10.0205C20.8021 10.0809 20.8707 10.129 20.9462 10.1618C21.0218 10.1947 21.1028 10.2118 21.1847 10.2121C21.5271 10.2121 21.8055 9.92069 21.8055 9.56153C21.8059 9.47646 21.7902 9.39214 21.7593 9.31338C21.7283 9.23463 21.6827 9.16298 21.6251 9.10255C21.5674 9.04212 21.4988 8.99409 21.4233 8.96121C21.3477 8.92833 21.2667 8.91124 21.1847 8.91092ZM19.142 8.40846C19.142 7.91627 18.7408 7.51781 18.2459 7.51781C17.7509 7.51781 17.3497 7.91688 17.3497 8.40846C17.3497 8.90004 17.7515 9.2985 18.2465 9.2985C18.7414 9.2985 19.142 8.90004 19.142 8.40846ZM19.1455 6.67735H20.1343V10.139H19.1455V9.91767C18.8573 10.1243 18.5152 10.2348 18.1649 10.2345C17.2024 10.2345 16.4221 9.41702 16.4221 8.40846C16.4221 7.3999 17.2024 6.58242 18.1649 6.58242C18.5289 6.58242 18.866 6.69911 19.1455 6.89925V6.67735ZM11.2309 7.12841V6.67795H10.2182V10.139H11.2332V8.52274C11.2332 7.97734 11.7969 7.68469 12.1882 7.68469H12.1998V6.67795C11.798 6.67795 11.4294 6.85814 11.2309 7.12841ZM8.70834 8.40846C8.70834 7.91627 8.30713 7.51781 7.81217 7.51781C7.31721 7.51781 6.91601 7.91688 6.91601 8.40846C6.91601 8.90004 7.3178 9.2985 7.81275 9.2985C8.30771 9.2985 8.70834 8.90004 8.70834 8.40846ZM8.71183 6.67735H9.70116V10.139H8.71183V9.91767C8.43232 10.1172 8.09517 10.2345 7.73123 10.2345C6.76869 10.2345 5.9884 9.41702 5.9884 8.40846C5.9884 7.3999 6.76869 6.58242 7.73123 6.58242C8.09517 6.58242 8.43232 6.69911 8.71183 6.89925V6.67735ZM14.6647 6.58483C14.2699 6.58483 13.8961 6.71302 13.6457 7.06734V6.67795H12.661V10.139H13.6579V8.32018C13.6579 7.79413 13.9945 7.53595 14.4003 7.53595C14.8347 7.53595 15.0851 7.80804 15.0851 8.31292V10.139H16.0727V7.93804C16.0727 7.13265 15.4613 6.58483 14.6647 6.58483ZM4.54778 10.139H5.58312V5.13549H4.54778V10.139ZM0 10.1402H1.09648V5.13428H0.00058226L0 10.1402ZM3.83504 5.13428C3.83504 6.21781 3.43209 7.22637 2.71353 7.97553L4.22868 10.1402H2.87483L1.22866 7.78809L1.65374 7.45432C1.99979 7.18407 2.28017 6.83352 2.47247 6.43068C2.66478 6.02784 2.76368 5.58388 2.76128 5.13428H3.83388H3.83504Z"></path>
</g>
<path fill="#353535" d="M47.3164 0H28.62C27.6267 0 26.8672 0.759542 26.8672 1.75279V12.2695C26.8672 13.2628 27.6852 14.0223 28.62 14.0223H47.3164C48.3096 14.0223 49.0692 13.2628 49.0692 12.2695V1.75279C49.0692 0.759542 48.2512 0 47.3164 0Z" opacity="0.07"></path>
<path fill="#47A3F8" d="M47.3161 0.584473C47.9588 0.584473 48.4846 1.11031 48.4846 1.753V12.2697C48.4846 12.9124 47.9588 13.4383 47.3161 13.4383H28.6197C27.977 13.4383 27.4512 12.9124 27.4512 12.2697V1.753C27.4512 1.11031 27.977 0.584473 28.6197 0.584473H47.3161Z"></path>
<path fill="white" d="M39.7285 11.6481V6.72803L48.4855 6.73562V8.09462L47.4735 9.17667L48.4855 10.2675V11.6551H46.8694L46.0105 10.7074L45.1575 11.6586L39.7285 11.6469V11.6481Z"></path>
<path fill="#47A3F8" d="M40.3135 11.1081V7.26953H43.569V8.15352H41.3675V8.75414H43.5164V9.62353H41.3675V10.2136H43.569V11.1081H40.3135Z"></path>
<path fill="#47A3F8" d="M43.5518 11.1082L45.353 9.18659L43.5518 7.26904H44.9458L46.0466 8.48606L47.1508 7.26963H48.4847V7.29942L46.722 9.18659L48.4847 11.0545V11.1088H47.1368L46.0168 9.88011L44.9078 11.1094H43.5518V11.1082Z"></path>
<path fill="white" d="M40.1361 2.36084H42.2476L42.9891 4.0441V2.36084H45.5949L46.0448 3.62226L46.4952 2.36084H48.4852V7.28092H37.9685L40.1361 2.36084Z"></path>
<path fill="#47A3F8" d="M40.5357 2.89502L38.832 6.73129H40.0006L40.3219 5.96299H42.063L42.3844 6.73129H43.5821L41.8854 2.89502H40.5357ZM40.6818 5.10178L41.193 3.88067L41.7031 5.10178H40.6818Z"></path>
<path fill="#47A3F8" d="M43.5657 6.7309V2.89404L45.208 2.89989L46.0541 5.25856L46.9047 2.89463H48.4846V6.73032L47.468 6.73966V4.10464L46.5074 6.73032H45.5785L44.5992 4.09587V6.7309H43.5663H43.5657Z"></path>
<path fill="white" d="M74.3064 0L74.5423 0.000406914C74.606 0.000813825 74.67 0.00149201 74.7342 0.00311965C74.846 0.00610367 74.9767 0.0119361 75.0986 0.0329598C75.2044 0.0512708 75.2933 0.0790763 75.3785 0.120853C75.5491 0.204209 75.6877 0.337546 75.7742 0.501586C75.8174 0.582968 75.8461 0.667877 75.8652 0.770554C75.8869 0.886388 75.893 1.01239 75.8959 1.1205C75.8978 1.18153 75.8986 1.24257 75.8988 1.30496C75.8995 1.38051 75.8995 1.45593 75.8995 1.53161V11.8832C75.8995 11.9588 75.8995 12.0343 75.8989 12.1113C75.8986 12.1723 75.8978 12.2334 75.8961 12.2944C75.893 12.4024 75.8869 12.5284 75.8649 12.6456C75.8489 12.7388 75.8182 12.8291 75.7739 12.9135C75.6872 13.0776 75.5484 13.2109 75.3777 13.2942C75.293 13.3357 75.2044 13.3635 75.0996 13.3817C74.9753 13.403 74.839 13.4088 74.7364 13.4115C74.6719 13.4129 74.6077 13.4138 74.5418 13.4141C74.4635 13.4146 74.3848 13.4146 74.3064 13.4146H55.1318C55.0542 13.4146 54.9766 13.4146 54.8975 13.4141C54.834 13.4138 54.7705 13.413 54.7071 13.4117C54.6021 13.4089 54.4658 13.403 54.3425 13.3818C54.245 13.3662 54.1505 13.3365 54.0623 13.2936C53.9776 13.2523 53.9004 13.1983 53.8334 13.1336C53.7662 13.0691 53.7101 12.9948 53.6672 12.9135C53.6228 12.8286 53.5921 12.7379 53.576 12.6442C53.554 12.5272 53.5478 12.4017 53.545 12.2945C53.5434 12.2333 53.5425 12.172 53.5422 12.1108L53.5417 11.9308V1.48414L53.542 1.30442C53.5423 1.24306 53.5433 1.1817 53.5449 1.12036C53.548 1.01294 53.554 0.887473 53.5762 0.769469C53.5923 0.675996 53.623 0.585405 53.6673 0.500772C53.7102 0.419661 53.7661 0.345603 53.8338 0.280633C53.9009 0.216003 53.9783 0.161986 54.063 0.120581C54.151 0.0780695 54.2452 0.0485317 54.3423 0.0329598C54.4644 0.0119361 54.5952 0.00610367 54.7072 0.00311965C54.771 0.00149201 54.8349 0.000813825 54.8982 0.000406914L55.1349 0H74.3064Z"></path>
<path fill="#353535" d="M59.9774 4.7334C60.1632 4.50116 60.2891 4.18926 60.2559 3.87061C59.9841 3.8841 59.6525 4.04991 59.4604 4.28242C59.2879 4.48144 59.1354 4.80631 59.1751 5.11159C59.4802 5.13806 59.7851 4.95915 59.9774 4.7334Z"></path>
<path fill="#353535" d="M60.2517 5.17121C59.8084 5.14474 59.4318 5.42264 59.2202 5.42264C59.0084 5.42264 58.6844 5.18444 58.3338 5.19093C57.8777 5.19754 57.4545 5.45559 57.2229 5.86581C56.7468 6.68625 57.0972 7.90369 57.5604 8.57195C57.7852 8.90278 58.0562 9.26668 58.4132 9.25358C58.7507 9.24035 58.8829 9.03524 59.2928 9.03524C59.7026 9.03524 59.8217 9.25358 60.1789 9.24697C60.5492 9.24035 60.7807 8.91614 61.0056 8.58532C61.2636 8.20818 61.3691 7.84427 61.3757 7.82442C61.3691 7.81781 60.6616 7.5464 60.655 6.73257C60.6484 6.05107 61.2105 5.72686 61.237 5.70688C60.9196 5.23738 60.4236 5.18444 60.2516 5.17121"></path>
<path fill="#353535" d="M64.6692 4.24951C65.6323 4.24951 66.303 4.91341 66.303 5.87995C66.303 6.84992 65.6185 7.51726 64.6451 7.51726H63.5788V9.2132H62.8083V4.24951H64.6692ZM63.5788 6.87057H64.4627C65.1336 6.87057 65.5153 6.50944 65.5153 5.88339C65.5153 5.25747 65.1335 4.89965 64.4662 4.89965H63.5788V6.87057Z"></path>
<path fill="#353535" d="M66.4949 8.18451C66.4949 7.54813 66.9799 7.18357 67.8741 7.12852L68.8338 7.07003V6.79478C68.8338 6.3925 68.569 6.1723 68.0978 6.1723C67.709 6.1723 67.4269 6.37172 67.3686 6.6778H66.6737C66.6944 6.03468 67.2997 5.56689 68.1184 5.56689C68.9989 5.56689 69.5734 6.0278 69.5734 6.74331V9.21298H68.8615V8.61789H68.8443C68.6413 9.00654 68.194 9.25069 67.709 9.25069C66.9936 9.25069 66.4949 8.82432 66.4949 8.18451ZM68.8338 7.86467V7.58598L67.9774 7.64103C67.4957 7.672 67.2448 7.85077 67.2448 8.16373C67.2448 8.4665 67.5061 8.66262 67.9154 8.66262C68.4381 8.66262 68.8338 8.32888 68.8338 7.86467Z"></path>
<path fill="#353535" d="M70.2279 10.5403V9.94539C70.2761 9.95214 70.393 9.95902 70.4549 9.95902C70.7954 9.95902 70.988 9.81478 71.105 9.44307L71.1738 9.223L69.8701 5.61133H70.6749L71.5831 8.5419H71.6003L72.5084 5.61133H73.2927L71.9408 9.40522C71.6312 10.2756 71.2769 10.5611 70.5271 10.5611C70.4686 10.5611 70.2794 10.5542 70.2279 10.5403Z"></path>
<path fill="#353535" d="M101.72 0H83.0238C82.0305 0 81.271 0.759542 81.271 1.75279V12.2695C81.271 13.2628 82.089 14.0223 83.0238 14.0223H101.72C102.713 14.0223 103.473 13.2628 103.473 12.2695V1.75279C103.473 0.759542 102.655 0 101.72 0Z" opacity="0.07"></path>
<path fill="white" d="M101.72 0.584473C102.363 0.584473 102.888 1.11031 102.888 1.753V12.2697C102.888 12.9124 102.363 13.4383 101.72 13.4383H83.0235C82.3808 13.4383 81.855 12.9124 81.855 12.2697V1.753C81.855 1.11031 82.3808 0.584473 83.0235 0.584473H101.72Z"></path>
<path fill="#5F6368" d="M91.8423 6.99722V8.86686H91.2476V4.25118H92.8198C93.0082 4.24799 93.1954 4.28207 93.3705 4.35146C93.5457 4.42084 93.7054 4.52417 93.8405 4.65549C93.9685 4.77491 94.0717 4.91838 94.1442 5.0777C94.2167 5.23702 94.2571 5.40907 94.263 5.584C94.269 5.75894 94.2404 5.93334 94.179 6.09723C94.1175 6.26112 94.0243 6.41129 93.9048 6.53916L93.8405 6.60693C93.5659 6.8681 93.199 7.01007 92.8198 7.00072L91.8423 6.99722ZM91.8423 4.81675V6.44567H92.8344C93.0547 6.45268 93.2674 6.3668 93.4216 6.20963C93.5319 6.09463 93.606 5.94973 93.6346 5.79295C93.6633 5.63618 93.6452 5.47445 93.5826 5.32788C93.52 5.18131 93.4157 5.05637 93.2827 4.96861C93.1497 4.88085 92.9938 4.83413 92.8344 4.83428L91.8423 4.81675ZM95.6307 5.60433C96.0105 5.58681 96.3821 5.71418 96.6695 5.96249C96.9295 6.21372 97.068 6.56428 97.0493 6.92594V8.87387H96.4831V8.42633H96.4545C96.353 8.59419 96.2094 8.73266 96.038 8.82805C95.8666 8.92345 95.6732 8.97247 95.477 8.97027C95.1568 8.98064 94.8445 8.86938 94.603 8.65886C94.4885 8.56551 94.3968 8.44736 94.3348 8.31334C94.2727 8.17933 94.242 8.03295 94.2448 7.8853C94.2381 7.73607 94.2671 7.5874 94.3294 7.45163C94.3917 7.31586 94.4855 7.19693 94.603 7.10472C94.8913 6.8974 95.2402 6.79158 95.5951 6.80383C95.8971 6.79214 96.1969 6.85816 96.4656 6.99722V6.87569C96.4676 6.77521 96.4467 6.6756 96.4045 6.5844C96.3623 6.4932 96.2999 6.41279 96.222 6.34927C96.0656 6.20709 95.8607 6.13016 95.6494 6.13426C95.4959 6.13281 95.3446 6.17052 95.2098 6.24382C95.0749 6.31712 94.961 6.4236 94.8788 6.55318L94.3558 6.22365C94.4978 6.02021 94.6895 5.8565 94.9127 5.74809C95.1358 5.63969 95.383 5.5902 95.6307 5.60433ZM94.8788 7.89932C94.8773 7.97499 94.8946 8.04985 94.9289 8.1173C94.9632 8.18475 95.0136 8.24272 95.0757 8.2861C95.2059 8.38893 95.3678 8.44327 95.5343 8.43976C95.7849 8.43918 96.0251 8.34044 96.2039 8.16399C96.3821 7.99689 96.4831 7.76377 96.4831 7.51955C96.2582 7.35964 95.9849 7.28244 95.7096 7.30104C95.4958 7.29262 95.2849 7.35281 95.1078 7.47281C95.0376 7.51974 94.9801 7.58317 94.9401 7.65753C94.9002 7.73189 94.8791 7.81492 94.8788 7.89932ZM100.304 5.70833L98.3236 10.2597H97.7113L98.4597 8.66587L97.1603 5.70833H97.8047L98.7466 7.9782L99.6633 5.70833H100.304Z"></path>
<path fill="#4285F4" d="M89.4412 6.5927C89.4412 6.41274 89.4272 6.23279 89.3986 6.05518H86.8921V7.07588H88.3241C88.295 7.2381 88.2334 7.39276 88.143 7.5306C88.0527 7.66845 87.9354 7.78663 87.7983 7.87808V8.54063H88.6536C88.9137 8.28898 89.1182 7.98563 89.2538 7.65012C89.3895 7.31461 89.4533 6.95439 89.4412 6.5927Z"></path>
<path fill="#34A853" d="M86.8962 9.18545C87.5426 9.20319 88.1715 8.974 88.6549 8.54451L87.7983 7.87845C87.5925 8.0104 87.3594 8.09369 87.1165 8.12197C86.8737 8.15026 86.6276 8.1228 86.397 8.04168C86.1664 7.96056 85.9573 7.82792 85.7856 7.65385C85.614 7.47977 85.4843 7.26885 85.4064 7.03711H84.5288V7.7207C84.7484 8.16067 85.0862 8.53076 85.5044 8.78948C85.9225 9.0482 86.4045 9.18532 86.8962 9.18545Z"></path>
<path fill="#FBBC04" d="M85.4078 7.04055C85.2966 6.71178 85.2966 6.35561 85.4078 6.02685V5.34326H84.5302C84.3431 5.7122 84.2456 6.12004 84.2456 6.5337C84.2456 6.94736 84.3431 7.3552 84.5302 7.72413L85.4078 7.04055Z"></path>
<path fill="#EA4335" d="M86.8962 4.93105C87.2743 4.92415 87.6397 5.06696 87.9129 5.32835L88.6724 4.5729C88.1881 4.11835 87.5457 3.87042 86.8816 3.88172C86.3928 3.88417 85.9142 4.02194 85.4989 4.27976C85.0836 4.53759 84.7479 4.90538 84.5288 5.34238L85.4064 6.02655C85.509 5.71109 85.7079 5.43575 85.9752 5.23924C86.2424 5.04273 86.5645 4.93495 86.8962 4.93105Z"></path>
<mask height="15" width="23" y="0" x="108" maskUnits="userSpaceOnUse" style="mask-type:luminance" id="mask0_149_4387">
<path fill="white" d="M130.675 0H108.473V14.0223H130.675V0Z"></path>
</mask>
<g mask="url(#mask0_149_4387)">
<path fill="#353535" d="M135.654 0H110.803C109.483 0 108.473 1.00956 108.473 2.32975V16.3083C108.473 17.6285 109.56 18.638 110.803 18.638H135.654C136.974 18.638 137.983 17.6285 137.983 16.3083V2.32975C137.983 1.00956 136.896 0 135.654 0Z" opacity="0.07"></path>
<path fill="white" d="M135.653 0.776855C136.507 0.776855 137.206 1.47578 137.206 2.33002V16.3085C137.206 17.1628 136.507 17.8617 135.653 17.8617H110.802C109.948 17.8617 109.249 17.1628 109.249 16.3085V2.33002C109.249 1.47578 109.948 0.776855 110.802 0.776855H135.653Z"></path>
<mask height="10" width="11" y="2" x="114" maskUnits="userSpaceOnUse" style="mask-type:luminance" id="mask1_149_4387">
<path fill="white" d="M124.832 2.92139H114.9V11.1011H124.832V2.92139Z"></path>
</mask>
<g mask="url(#mask1_149_4387)">
<path fill="white" d="M115.209 3.13047V10.9224H119.97C123.111 10.9224 124.473 9.24421 124.473 7.01869C124.473 4.80202 123.111 3.13037 119.97 3.13037L115.209 3.13047Z"></path>
<path fill="#353535" d="M120 2.95898C124.156 2.95898 124.776 5.50167 124.776 7.0169C124.776 9.64596 123.08 11.0938 120 11.0938H114.906V2.95908L120 2.95898ZM115.307 3.34154V10.7113H120C122.834 10.7113 124.376 9.45176 124.376 7.0169C124.376 4.51482 122.704 3.34154 120 3.34154H115.307Z"></path>
<path fill="#353535" d="M115.937 10.1104H117.44V7.55879H115.937M117.622 6.27359C117.622 6.76559 117.204 7.16459 116.688 7.16459C116.173 7.16459 115.755 6.76559 115.755 6.27359C115.755 6.03737 115.853 5.81077 116.028 5.64372C116.203 5.47666 116.441 5.38281 116.688 5.38281C116.936 5.38281 117.173 5.47666 117.348 5.64372C117.524 5.81077 117.622 6.03737 117.622 6.27359Z"></path>
<path fill="#CC0066" d="M120.569 6.69034V7.1033H119.498V5.44574H120.534V5.85841H119.931V6.05063H120.502V6.46312H119.931V6.69022L120.569 6.69034ZM120.777 7.10371L121.301 5.44524H121.916L122.44 7.10371H121.99L121.892 6.78289H121.326L121.227 7.10371H120.777ZM121.452 6.37034H121.765L121.622 5.9017H121.596L121.452 6.37034ZM122.658 5.44524H123.091V6.69034H123.732C123.556 4.43096 121.693 3.94287 120 3.94287H118.195V5.44593H118.462C118.95 5.44593 119.252 5.76115 119.252 6.26792C119.252 6.79101 118.957 7.10312 118.462 7.10312H118.195V10.111H120C122.752 10.111 123.71 8.89155 123.744 7.10324H122.658V5.44524ZM118.195 5.85882V6.69034H118.462C118.648 6.69034 118.819 6.63928 118.819 6.26809C118.819 5.90521 118.629 5.8587 118.462 5.8587L118.195 5.85882Z"></path>
</g>
</g>
<path fill="#353535" d="M156.124 0H137.428C136.435 0 135.675 0.759542 135.675 1.75279V12.2695C135.675 13.2628 136.493 14.0223 137.428 14.0223H156.124C157.118 14.0223 157.877 13.2628 157.877 12.2695V1.75279C157.877 0.759542 157.059 0 156.124 0Z" opacity="0.07"></path>
<path fill="white" d="M156.124 0.584473C156.767 0.584473 157.293 1.11031 157.293 1.753V12.2697C157.293 12.9124 156.767 13.4383 156.124 13.4383H137.428C136.785 13.4383 136.259 12.9124 136.259 12.2697V1.753C136.259 1.11031 136.785 0.584473 137.428 0.584473H156.124Z"></path>
<path fill="#EB001B" d="M144.439 11.1011C146.698 11.1011 148.529 9.26999 148.529 7.01123C148.529 4.75247 146.698 2.92139 144.439 2.92139C142.18 2.92139 140.349 4.75247 140.349 7.01123C140.349 9.26999 142.18 11.1011 144.439 11.1011Z"></path>
<path fill="#00A2E5" d="M149.114 11.1011C151.372 11.1011 153.203 9.26999 153.203 7.01123C153.203 4.75247 151.372 2.92139 149.114 2.92139C146.855 2.92139 145.024 4.75247 145.024 7.01123C145.024 9.26999 146.855 11.1011 149.114 11.1011Z"></path>
<path fill="#7375CF" d="M148.529 7.01096C148.529 5.60873 147.828 4.38178 146.776 3.68066C145.725 4.44021 145.024 5.66716 145.024 7.01096C145.024 8.35477 145.725 9.64015 146.776 10.3413C147.828 9.64015 148.529 8.4132 148.529 7.01096Z"></path>
<path fill="#353535" d="M183.326 0H164.63C163.637 0 162.877 0.759542 162.877 1.75279V12.2695C162.877 13.2628 163.695 14.0223 164.63 14.0223H183.326C184.32 14.0223 185.079 13.2628 185.079 12.2695V1.75279C185.079 0.759542 184.261 0 183.326 0Z" opacity="0.07"></path>
<path fill="white" d="M183.326 0.584473C183.969 0.584473 184.495 1.11031 184.495 1.753V12.2697C184.495 12.9124 183.969 13.4383 183.326 13.4383H164.63C163.987 13.4383 163.461 12.9124 163.461 12.2697V1.753C163.461 1.11031 163.987 0.584473 164.63 0.584473H183.326Z"></path>
<path fill="#EB001B" d="M171.641 11.1011C173.9 11.1011 175.731 9.26999 175.731 7.01123C175.731 4.75247 173.9 2.92139 171.641 2.92139C169.382 2.92139 167.551 4.75247 167.551 7.01123C167.551 9.26999 169.382 11.1011 171.641 11.1011Z"></path>
<path fill="#F79E1B" d="M176.315 11.1011C178.574 11.1011 180.405 9.26999 180.405 7.01123C180.405 4.75247 178.574 2.92139 176.315 2.92139C174.057 2.92139 172.226 4.75247 172.226 7.01123C172.226 9.26999 174.057 11.1011 176.315 11.1011Z"></path>
<path fill="#FF5F00" d="M175.731 7.01096C175.731 5.60873 175.03 4.38178 173.978 3.68066C172.927 4.44021 172.226 5.66716 172.226 7.01096C172.226 8.35477 172.927 9.64015 173.978 10.3413C175.03 9.64015 175.731 8.4132 175.731 7.01096Z"></path>
<path fill="#353535" d="M210.528 0H191.832C190.839 0 190.079 0.759542 190.079 1.75279V12.2695C190.079 13.2628 190.897 14.0223 191.832 14.0223H210.528C211.522 14.0223 212.281 13.2628 212.281 12.2695V1.75279C212.281 0.759542 211.463 0 210.528 0Z" opacity="0.07"></path>
<path fill="white" d="M210.528 0.584473C211.171 0.584473 211.697 1.11031 211.697 1.753V12.2697C211.697 12.9124 211.171 13.4383 210.528 13.4383H191.832C191.189 13.4383 190.663 12.9124 190.663 12.2697V1.753C190.663 1.11031 191.189 0.584473 191.832 0.584473H210.528Z"></path>
<path fill="#003087" d="M204.043 4.84946C204.16 4.26519 204.043 3.85621 203.692 3.50565C203.342 3.09667 202.699 2.92139 201.881 2.92139H199.486C199.31 2.92139 199.194 3.03824 199.135 3.21352L198.259 9.11458C198.259 9.23143 198.317 9.34828 198.434 9.34828H200.012L200.245 7.36179L201.297 6.07641L204.043 4.84946Z"></path>
<path fill="#3086C8" d="M204.043 4.84961L203.927 4.96646C203.634 6.6024 202.641 7.18666 201.239 7.18666H200.596C200.421 7.18666 200.304 7.30351 200.246 7.47879L199.895 9.75742L199.778 10.3417C199.778 10.4585 199.837 10.5754 199.954 10.5754H201.181C201.356 10.5754 201.473 10.4585 201.473 10.3417V10.2833L201.706 8.88102V8.8226C201.706 8.70575 201.882 8.58889 201.999 8.58889H202.174C203.401 8.58889 204.336 8.12148 204.569 6.71925C204.686 6.13499 204.628 5.66758 204.336 5.31702C204.277 5.02489 204.16 4.90804 204.043 4.84961Z"></path>
<path fill="#415A7B" d="M203.692 4.73241C203.634 4.67398 203.575 4.67398 203.517 4.67398C203.459 4.67398 203.4 4.67398 203.342 4.61556C203.166 4.55713 202.933 4.55713 202.699 4.55713H200.946C200.888 4.55713 200.829 4.55713 200.829 4.61556C200.713 4.67398 200.654 4.73241 200.654 4.84926L200.245 7.42002V7.47845C200.245 7.30317 200.42 7.18631 200.596 7.18631H201.355C202.816 7.18631 203.751 6.60205 204.043 4.96611V4.84926C203.984 4.79083 203.868 4.73241 203.751 4.73241H203.692Z"></path>
<path fill="#353535" d="M237.73 0H219.034C218.041 0 217.281 0.759542 217.281 1.75279V12.2695C217.281 13.2628 218.099 14.0223 219.034 14.0223H237.73C238.723 14.0223 239.483 13.2628 239.483 12.2695V1.75279C239.483 0.759542 238.665 0 237.73 0Z" opacity="0.07"></path>
<path fill="#5A31F4" d="M238.25 0C238.928 0 239.483 0.573746 239.483 1.27486V12.7475C239.483 13.4486 238.928 14.0223 238.25 14.0223H218.514C217.836 14.0223 217.281 13.4486 217.281 12.7475V1.27486C217.281 0.573746 217.836 0 218.514 0H238.25Z"></path>
<path fill="white" d="M222.744 6.64197C222.15 6.51168 221.885 6.46085 221.885 6.23007C221.885 6.01272 222.064 5.90405 222.423 5.90405C222.738 5.90405 222.968 6.04311 223.138 6.31537C223.144 6.32548 223.154 6.33292 223.165 6.33618C223.176 6.33943 223.189 6.33826 223.199 6.3329L223.869 5.99169C223.874 5.98865 223.879 5.98448 223.883 5.97944C223.887 5.9744 223.89 5.9686 223.892 5.96238C223.894 5.95615 223.894 5.94964 223.894 5.94323C223.893 5.93682 223.891 5.93065 223.887 5.92508C223.61 5.43956 223.097 5.17372 222.421 5.17372C221.533 5.17372 220.981 5.61484 220.981 6.31654C220.981 7.06148 221.653 7.24961 222.249 7.3799C222.845 7.50961 223.11 7.56102 223.11 7.79181C223.11 8.02317 222.916 8.13185 222.53 8.13185C222.173 8.13185 221.908 7.96708 221.747 7.64691C221.742 7.63595 221.732 7.62765 221.72 7.62383C221.708 7.62 221.696 7.62094 221.685 7.62646L221.017 7.95949C221.006 7.96536 220.997 7.97545 220.993 7.98759C220.989 7.99974 220.99 8.01294 220.996 8.02434C221.261 8.56186 221.804 8.86393 222.531 8.86393C223.456 8.86393 224.014 8.4304 224.014 7.70709C224.014 6.98377 223.339 6.77343 222.745 6.64373L222.744 6.64197ZM226.331 5.17372C225.952 5.17372 225.616 5.30927 225.375 5.55116C225.372 5.55465 225.368 5.55704 225.363 5.558C225.358 5.55897 225.354 5.55846 225.349 5.55654C225.345 5.55463 225.341 5.5514 225.339 5.5473C225.336 5.5432 225.335 5.53842 225.335 5.53363V3.99117C225.335 3.98499 225.334 3.97884 225.332 3.97311C225.329 3.96737 225.326 3.96215 225.322 3.95774C225.317 3.95334 225.312 3.94985 225.306 3.94746C225.301 3.94508 225.295 3.94385 225.288 3.94385H224.45C224.444 3.94385 224.438 3.94509 224.432 3.94751C224.426 3.94994 224.421 3.95348 224.417 3.95795C224.412 3.96241 224.409 3.9677 224.406 3.97351C224.404 3.97932 224.403 3.98552 224.403 3.99176V8.77921C224.403 8.78545 224.404 8.79165 224.406 8.79746C224.409 8.80326 224.412 8.80855 224.417 8.81302C224.421 8.81748 224.426 8.82103 224.432 8.82345C224.438 8.82587 224.444 8.82712 224.45 8.82712H225.287C225.294 8.8272 225.3 8.82601 225.306 8.82362C225.311 8.82124 225.317 8.8177 225.321 8.81323C225.325 8.80876 225.329 8.80344 225.331 8.79759C225.334 8.79175 225.335 8.78549 225.335 8.77921V6.67937C225.335 6.2733 225.643 5.96248 226.058 5.96248C226.473 5.96248 226.775 6.26688 226.775 6.67937V8.77921C226.775 8.78549 226.776 8.79175 226.778 8.79759C226.78 8.80344 226.784 8.80876 226.788 8.81323C226.793 8.8177 226.798 8.82124 226.804 8.82362C226.81 8.82601 226.816 8.8272 226.822 8.82712H227.659C227.666 8.8272 227.672 8.82601 227.678 8.82362C227.683 8.82124 227.689 8.8177 227.693 8.81323C227.698 8.80876 227.701 8.80344 227.703 8.79759C227.706 8.79175 227.707 8.78549 227.707 8.77921V6.67937C227.707 5.79713 227.134 5.17372 226.331 5.17372ZM229.406 5.03642C228.952 5.03642 228.526 5.17664 228.22 5.37997C228.21 5.38658 228.203 5.39685 228.2 5.40869C228.197 5.42052 228.198 5.43302 228.204 5.44365L228.574 6.07933C228.577 6.08474 228.581 6.08949 228.586 6.0933C228.591 6.09712 228.596 6.09992 228.602 6.10155C228.608 6.10318 228.614 6.10361 228.621 6.1028C228.627 6.102 228.633 6.09998 228.638 6.09686C228.87 5.95538 229.136 5.88132 229.408 5.88302C230.138 5.88302 230.676 6.4036 230.676 7.09127C230.676 7.67729 230.246 8.11081 229.701 8.11081C229.257 8.11081 228.948 7.85023 228.948 7.48156C228.948 7.27064 229.037 7.0977 229.268 6.97559C229.274 6.97267 229.279 6.96859 229.283 6.96361C229.287 6.95863 229.29 6.95286 229.292 6.94666C229.294 6.94046 229.294 6.93397 229.294 6.92759C229.293 6.9212 229.29 6.91507 229.287 6.90957L228.939 6.31479C228.933 6.30511 228.925 6.29773 228.914 6.29398C228.904 6.29023 228.892 6.29036 228.882 6.29434C228.415 6.46903 228.088 6.88912 228.088 7.45352C228.088 8.30654 228.761 8.94339 229.7 8.94339C230.797 8.94339 231.586 8.17625 231.586 7.07667C231.586 5.89762 230.668 5.03642 229.406 5.03642ZM234.035 5.16671C233.612 5.16671 233.233 5.32446 232.957 5.60257C232.942 5.61835 232.917 5.60666 232.917 5.58563V5.25143C232.917 5.24519 232.916 5.23899 232.913 5.23318C232.911 5.22738 232.908 5.22208 232.903 5.21762C232.899 5.21315 232.894 5.20961 232.888 5.20719C232.882 5.20476 232.876 5.20352 232.87 5.20352H232.054C232.047 5.20352 232.041 5.20476 232.035 5.20719C232.03 5.20961 232.024 5.21315 232.02 5.21762C232.016 5.22208 232.012 5.22738 232.01 5.23318C232.008 5.23899 232.007 5.24519 232.007 5.25143V10.0319C232.007 10.0381 232.008 10.0442 232.01 10.0499C232.013 10.0557 232.016 10.0609 232.02 10.0653C232.025 10.0697 232.03 10.0732 232.036 10.0756C232.041 10.078 232.047 10.0792 232.054 10.0792H232.891C232.897 10.0793 232.903 10.0781 232.909 10.0758C232.915 10.0734 232.92 10.0699 232.924 10.0655C232.929 10.0611 232.932 10.0558 232.935 10.0501C232.937 10.0443 232.938 10.0381 232.938 10.0319V8.46429C232.938 8.44326 232.963 8.43274 232.978 8.44676C233.265 8.71419 233.643 8.86071 234.035 8.85575C235.018 8.85575 235.784 8.05355 235.784 7.01123C235.784 5.9689 235.016 5.16671 234.035 5.16671ZM233.876 8.04654C233.318 8.04654 232.894 7.59783 232.894 7.0048C232.894 6.41178 233.317 5.96306 233.876 5.96306C234.436 5.96306 234.858 6.40418 234.858 7.0048C234.858 7.60484 234.442 8.04654 233.876 8.04654Z"></path>
<path fill="#005B9A" d="M254.825 0V14.0223H250.618C249.858 14.0223 249.391 13.4381 249.566 12.6785L252.137 1.3438C252.312 0.584263 253.247 0 254.007 0H254.825ZM262.186 0C261.427 0 260.492 0.584263 260.317 1.3438L257.688 12.6785C257.512 13.4381 257.98 14.0223 258.739 14.0223H255.876V0H262.186Z"></path>
<path fill="#E9292D" d="M254.006 0C253.246 0 252.311 0.642689 252.136 1.3438L249.565 12.6785C249.39 13.4381 249.858 14.0223 250.617 14.0223H245.417C244.95 14.0223 244.541 13.6718 244.541 13.2043V0.934821C244.541 0.467411 244.95 0 245.417 0H254.006Z"></path>
<path fill="#0E73B9" d="M262.186 0C261.426 0 260.492 0.642689 260.316 1.3438L257.746 12.6785C257.57 13.4381 258.038 14.0223 258.797 14.0223H250.325H250.618C249.858 14.0223 249.391 13.4381 249.566 12.6785L252.137 1.3438C252.312 0.584263 253.247 0 254.006 0H262.186Z"></path>
<path fill="#059DA4" d="M266.686 0.934821V13.2043C266.686 13.6718 266.335 14.0223 265.809 14.0223H258.74C257.98 14.0223 257.513 13.3796 257.688 12.6785L260.317 1.3438C260.492 0.584263 261.427 0 262.187 0H265.809C266.335 0 266.686 0.408984 266.686 0.934821Z"></path>
<path fill="white" d="M253.176 7.97238H253.257C253.339 7.97238 253.421 7.93148 253.421 7.89058L253.666 7.5225H254.362L254.239 7.72699H255.057L254.934 8.09508H253.953C253.83 8.25867 253.707 8.34047 253.544 8.34047H253.053L253.176 7.97238ZM253.053 8.50406H254.811L254.689 8.91305H253.994L253.871 9.32203H254.566L254.443 9.73101H253.748L253.585 10.3445C253.544 10.4263 253.585 10.5081 253.748 10.4672H254.321L254.198 10.8762H253.094C252.889 10.8762 252.807 10.7535 252.889 10.5081L253.094 9.73101H252.644L252.767 9.32203H253.216L253.339 8.91305H252.93L253.053 8.50406ZM255.875 7.4816V7.72699C255.875 7.72699 256.202 7.4816 256.529 7.4816H257.674L257.224 9.03574C257.184 9.19933 257.02 9.32203 256.775 9.32203H255.466L255.18 10.4263C255.18 10.4672 255.18 10.5081 255.261 10.5081H255.507L255.425 10.8353H254.771C254.525 10.8353 254.443 10.7535 254.484 10.6308L255.343 7.4816H255.875ZM256.856 7.93148H255.834L255.711 8.34047C255.711 8.34047 255.875 8.21777 256.161 8.21777H256.775L256.856 7.93148ZM256.488 8.91305C256.57 8.91305 256.611 8.91305 256.611 8.83125L256.693 8.62676H255.67L255.589 8.95394L256.488 8.91305ZM255.793 9.40383H256.366V9.64922H256.529C256.611 9.64922 256.652 9.60832 256.652 9.56742L256.693 9.40383H257.184L257.102 9.69011C257.061 9.89461 256.897 9.9764 256.652 10.0173H256.325V10.4672C256.325 10.549 256.366 10.5899 256.529 10.5899H256.815L256.734 10.9171H256.038C255.834 10.9171 255.752 10.8353 255.752 10.6308L255.793 9.40383ZM258.247 7.97238L258.37 7.4816H259.065L259.024 7.64519C259.024 7.64519 259.351 7.4816 259.637 7.4816H260.496L260.374 7.97238H260.251L259.597 10.2218H259.719L259.597 10.6717H259.474L259.433 10.8762H258.738L258.779 10.6717H257.511L257.633 10.2218H257.756L258.411 7.97238H258.247ZM258.983 7.97238L258.82 8.58586C258.82 8.58586 259.106 8.46316 259.351 8.42226C259.392 8.21777 259.474 7.97238 259.474 7.97238H258.983ZM258.697 8.87215L258.533 9.52652C258.533 9.52652 258.86 9.36293 259.106 9.36293C259.188 9.11754 259.229 8.91305 259.229 8.91305L258.697 8.87215ZM258.82 10.2218L258.942 9.77191H258.451L258.329 10.2218H258.82ZM260.496 7.4816H261.151L261.192 7.72699C261.192 7.76789 261.233 7.80879 261.314 7.80879H261.437L261.314 8.21777H260.864C260.701 8.21777 260.578 8.17687 260.578 8.01328L260.496 7.4816ZM260.292 8.34047H262.378L262.255 8.79035H261.56L261.437 9.19933H262.091L261.969 9.64922H261.233L261.069 9.89461H261.437L261.519 10.3854C261.519 10.4263 261.56 10.4672 261.642 10.4672H261.764L261.642 10.8762H261.233C261.028 10.8762 260.905 10.8353 260.905 10.6717L260.824 10.2218L260.496 10.7126C260.415 10.8353 260.292 10.9171 260.128 10.9171H259.515L259.637 10.5081H259.842C259.924 10.5081 259.965 10.4672 260.046 10.3854L260.537 9.64922H259.924L260.046 9.19933H260.742L260.864 8.79035H260.169L260.292 8.34047ZM248.759 5.39578C248.677 5.80476 248.513 6.09105 248.227 6.29555C247.941 6.50004 247.572 6.62273 247.123 6.62273C246.714 6.62273 246.386 6.50004 246.223 6.29555C246.1 6.13195 246.018 5.96836 246.018 5.72297C246.018 5.64117 246.018 5.51848 246.059 5.39578L246.55 3.10547H247.245L246.795 5.39578V5.55937C246.795 5.68207 246.836 5.76387 246.877 5.84566C246.959 5.96836 247.082 6.00926 247.286 6.00926C247.491 6.00926 247.695 5.96836 247.818 5.84566C247.941 5.72297 248.063 5.60027 248.104 5.39578L248.554 3.10547H249.249L248.759 5.39578ZM249.413 4.49601H249.904L249.863 4.7823L249.945 4.70051C250.108 4.53691 250.313 4.45512 250.558 4.45512C250.763 4.45512 250.926 4.53691 251.008 4.65961C251.09 4.7823 251.131 4.9459 251.09 5.19129L250.803 6.58183H250.272L250.517 5.31398C250.558 5.15039 250.558 5.02769 250.517 4.9868C250.476 4.905 250.394 4.905 250.313 4.905C250.19 4.905 250.067 4.9459 249.985 5.02769C249.904 5.10949 249.822 5.23219 249.822 5.39578L249.576 6.58183H249.045L249.413 4.49601ZM255.139 4.49601H255.629L255.589 4.7823L255.67 4.70051C255.834 4.53691 256.038 4.45512 256.284 4.45512C256.488 4.45512 256.652 4.53691 256.734 4.65961C256.815 4.7823 256.856 4.9459 256.815 5.19129L256.529 6.58183H255.998L256.243 5.27309C256.284 5.15039 256.243 5.02769 256.202 4.9868C256.161 4.905 256.079 4.905 255.998 4.905C255.875 4.905 255.752 4.9459 255.67 5.02769C255.589 5.10949 255.507 5.23219 255.507 5.39578L255.261 6.58183H254.73L255.139 4.49601ZM251.744 4.49601H252.317L251.867 6.54094H251.294L251.744 4.49601ZM251.949 3.71894H252.521L252.398 4.20973H251.826L251.949 3.71894ZM252.767 6.37734C252.644 6.25465 252.562 6.05016 252.562 5.80477V5.68207C252.562 5.64117 252.562 5.55937 252.603 5.51848C252.685 5.19129 252.807 4.905 253.012 4.74141C253.216 4.53691 253.503 4.45512 253.789 4.45512C254.034 4.45512 254.239 4.53691 254.402 4.65961C254.525 4.7823 254.607 4.9868 254.607 5.23219V5.35488C254.607 5.39578 254.607 5.47758 254.566 5.51848C254.484 5.84566 254.362 6.09105 254.157 6.29555C253.953 6.50004 253.666 6.58183 253.38 6.58183C253.176 6.58183 252.971 6.50004 252.767 6.37734ZM253.871 5.96836C253.953 5.84566 254.034 5.68207 254.075 5.47758V5.27309C254.075 5.15039 254.034 5.06859 253.994 4.9868C253.958 4.94682 253.913 4.91514 253.864 4.89395C253.814 4.87276 253.761 4.86258 253.707 4.8641C253.544 4.8641 253.421 4.905 253.339 5.02769C253.257 5.15039 253.176 5.31398 253.135 5.51848V5.68207C253.135 5.80476 253.176 5.88656 253.216 5.96836C253.298 6.05016 253.38 6.09105 253.503 6.09105C253.666 6.13195 253.748 6.09105 253.871 5.96836ZM257.674 3.22816H259.147C259.433 3.22816 259.637 3.30996 259.801 3.43266C259.965 3.55535 260.006 3.75984 260.006 3.96434V4.12793C260.006 4.16883 260.006 4.25063 259.965 4.29152C259.924 4.57781 259.76 4.8641 259.556 5.02769C259.31 5.23219 259.065 5.31398 258.738 5.31398H257.92L257.674 6.50004H256.979L257.674 3.22816ZM258.002 4.74141H258.656C258.82 4.74141 258.942 4.70051 259.065 4.61871C259.147 4.53691 259.229 4.41422 259.269 4.25063V4.08703C259.269 3.96434 259.229 3.88254 259.147 3.84164C259.065 3.80074 258.942 3.75984 258.738 3.75984H258.206L258.002 4.74141ZM263.073 6.90902C262.868 7.3589 262.664 7.64519 262.541 7.76789C262.419 7.89058 262.173 8.17687 261.601 8.17687L261.642 7.80879C262.132 7.64519 262.378 6.99082 262.541 6.66363L262.378 4.45512H263.073L263.114 5.84566L263.646 4.49601H264.259L263.073 6.90902ZM261.355 4.65961L261.11 4.8232C260.864 4.61871 260.619 4.49601 260.21 4.70051C259.637 4.98679 259.106 7.11351 260.742 6.41824L260.824 6.54094H261.478L261.887 4.61871L261.355 4.65961ZM261.028 5.72297C260.905 6.05015 260.701 6.21375 260.496 6.17285C260.333 6.09105 260.292 5.80476 260.374 5.47758C260.496 5.15039 260.701 4.9868 260.905 5.02769C261.069 5.10949 261.11 5.39578 261.028 5.72297Z"></path>
<path fill="#353535" d="M292.134 0H273.438C272.445 0 271.685 0.759542 271.685 1.75279V12.2695C271.685 13.2628 272.503 14.0223 273.438 14.0223H292.134C293.128 14.0223 293.887 13.2628 293.887 12.2695V1.75279C293.887 0.759542 293.069 0 292.134 0Z" opacity="0.07"></path>
<path fill="white" d="M292.134 0.584473C292.777 0.584473 293.303 1.11031 293.303 1.753V12.2697C293.303 12.9124 292.777 13.4383 292.134 13.4383H273.438C272.795 13.4383 272.269 12.9124 272.269 12.2697V1.753C272.269 1.11031 272.795 0.584473 273.438 0.584473H292.134Z"></path>
<path fill="#415A7B" d="M288.219 5.90127H288.044C287.81 6.48553 287.635 6.77766 287.46 7.65406H288.57C288.395 6.77766 288.395 6.36868 288.219 5.90127ZM289.914 9.34842H288.92C288.862 9.34842 288.862 9.34842 288.804 9.29L288.687 8.76416L288.628 8.64731H287.226C287.168 8.64731 287.109 8.64731 287.109 8.76416L286.934 9.29C286.934 9.34842 286.875 9.34842 286.875 9.34842H285.649L285.765 9.05629L287.46 5.0833C287.46 4.79117 287.635 4.67432 287.927 4.67432H288.804C288.862 4.67432 288.92 4.67432 288.92 4.79117L289.738 8.58888C289.797 8.82259 289.855 8.99786 289.855 9.23157C289.914 9.29 289.914 9.29 289.914 9.34842ZM282.085 9.17314L282.318 8.12147C282.377 8.12147 282.435 8.1799 282.435 8.1799C282.844 8.35517 283.253 8.47203 283.662 8.4136C283.779 8.4136 283.954 8.35517 284.071 8.29675C284.363 8.1799 284.363 7.88776 284.129 7.65406C284.013 7.53721 283.837 7.47878 283.662 7.36193C283.428 7.24507 283.195 7.12822 283.019 6.95294C282.318 6.36868 282.552 5.55071 282.961 5.14173C283.311 4.90802 283.487 4.67432 283.954 4.67432C284.655 4.67432 285.415 4.67432 285.765 4.79117H285.824C285.765 5.14173 285.707 5.43386 285.59 5.78442C285.298 5.66756 285.006 5.55071 284.714 5.55071C284.538 5.55071 284.363 5.55071 284.188 5.60914C284.071 5.60914 284.013 5.66756 283.954 5.72599C283.837 5.84284 283.837 6.01812 283.954 6.13497L284.246 6.36868C284.48 6.48553 284.714 6.60238 284.889 6.71924C285.181 6.89452 285.473 7.18665 285.532 7.53721C285.649 8.06304 285.473 8.53045 285.006 8.88101C284.714 9.11472 284.597 9.23157 284.188 9.23157C283.37 9.23157 282.727 9.29 282.201 9.11472C282.143 9.23157 282.143 9.23157 282.085 9.17314ZM280.04 9.34842C280.098 8.93944 280.098 8.93944 280.156 8.76416C280.449 7.47878 280.741 6.13497 280.974 4.8496C281.033 4.73274 281.033 4.67432 281.15 4.67432H282.201C282.085 5.37543 281.968 5.90127 281.792 6.54396C281.617 7.42035 281.442 8.29675 281.208 9.17314C281.208 9.29 281.15 9.29 281.033 9.29M274.606 4.79117C274.606 4.73274 274.723 4.67432 274.781 4.67432H276.768C277.06 4.67432 277.294 4.8496 277.352 5.14173L277.878 7.71249C277.878 7.77091 277.878 7.77091 277.936 7.82934C277.936 7.77091 277.995 7.77091 277.995 7.77091L279.222 4.79117C279.163 4.73274 279.222 4.67432 279.28 4.67432H280.507C280.507 4.73274 280.507 4.73274 280.449 4.79117L278.637 9.05629C278.579 9.17314 278.579 9.23157 278.521 9.29C278.462 9.34842 278.345 9.29 278.228 9.29H277.352C277.294 9.29 277.235 9.29 277.235 9.17314L276.3 5.55071C276.183 5.43386 276.008 5.25858 275.774 5.20015C275.424 5.02487 274.781 4.90802 274.664 4.90802L274.606 4.79117Z"></path>
<defs>
<clipPath id="clip0_149_4387">
<rect fill="white" rx="1.67683" height="12.6156" width="21.8671" y="0.703125"></rect>
</clipPath>
</defs>
</svg>
